<svg xmlns="http://www.w3.org/2000/svg" xmlns:xlink="http://www.w3.org/1999/xlink" width="47.5" height="47.5" viewBox="0 0 47.5 47.5">
  <defs>
    <clipPath id="clip-path">
      <path id="Path_38" data-name="Path 38" d="M0-47.5H47.5V0H0Z"/>
    </clipPath>
  </defs>
  <g id="Group_37" data-name="Group 37" transform="translate(0 47.5)" clip-path="url(#clip-path)">
    <path id="Path_36" data-name="Path 36" d="M0,0C-2.3,0-3.318-1.673-2.257-3.716L17.254-41.285c1.06-2.044,2.8-2.044,3.859,0L40.624-3.716C41.686-1.673,40.67,0,38.366,0Z" transform="translate(4.566 -2.5)" fill="#ffcc4d"/>
    <path id="Path_37" data-name="Path 37" d="M0,0A2.585,2.585,0,0,1,2.79-2.635,2.628,2.628,0,0,1,5.581,0V14.922A2.628,2.628,0,0,1,2.79,17.557,2.586,2.586,0,0,1,0,14.922ZM-.234,22.866A3.024,3.024,0,1,1,2.79,25.89,3.028,3.028,0,0,1-.234,22.866" transform="translate(20.961 -32.925)" fill="#231f20"/>
  </g>
</svg>
