<svg xmlns="http://www.w3.org/2000/svg" width="187.966" height="175.435" viewBox="0 0 187.966 175.435">
  <path id="Path_38" data-name="Path 38" d="M93.983,78.526l93.983,37.593V128.65H175.435a5.814,5.814,0,0,1-2.007,4.405,6.752,6.752,0,0,1-4.748,1.86H19.286a6.752,6.752,0,0,1-4.748-1.86,5.814,5.814,0,0,1-2.007-4.405H0V116.119ZM25.062,141.181H50.124v75.186H62.655V141.181H87.717v75.186h12.531V141.181H125.31v75.186h12.531V141.181H162.9v75.186h5.776a6.752,6.752,0,0,1,4.748,1.86,5.814,5.814,0,0,1,2.007,4.405V228.9H12.531v-6.266a5.814,5.814,0,0,1,2.007-4.405,6.752,6.752,0,0,1,4.748-1.86h5.776V141.181Zm156.149,93.983a6.752,6.752,0,0,1,4.748,1.86,5.814,5.814,0,0,1,2.007,4.405v12.531H0V241.429a5.814,5.814,0,0,1,2.007-4.405,6.752,6.752,0,0,1,4.748-1.86Z" transform="translate(0 -78.526)" fill="#36a22d"/>
</svg>
