<svg xmlns="http://www.w3.org/2000/svg" width="226.077" height="143.867" viewBox="0 0 226.077 143.867">
  <path id="Path_41" data-name="Path 41" d="M52.381,66.657A10.276,10.276,0,1,0,62.657,76.934,10.276,10.276,0,0,0,52.381,66.657Zm123.315,0a10.276,10.276,0,1,0,10.276,10.276A10.276,10.276,0,0,0,175.7,66.657ZM196.248,5H31.829A30.829,30.829,0,0,0,1,35.829v82.21a30.829,30.829,0,0,0,30.829,30.829h164.42a30.829,30.829,0,0,0,30.829-30.829V35.829A30.829,30.829,0,0,0,196.248,5Zm10.276,113.039a10.276,10.276,0,0,1-10.276,10.276H31.829a10.276,10.276,0,0,1-10.276-10.276V35.829A10.276,10.276,0,0,1,31.829,25.552h164.42a10.276,10.276,0,0,1,10.276,10.276ZM114.039,46.1a30.829,30.829,0,1,0,30.829,30.829A30.829,30.829,0,0,0,114.039,46.1Zm0,41.1a10.276,10.276,0,1,1,10.276-10.276A10.276,10.276,0,0,1,114.039,87.21Z" transform="translate(-1 -5)" fill="#36a22d"/>
</svg>
