<svg xmlns="http://www.w3.org/2000/svg" width="61" height="43.571" viewBox="0 0 61 43.571">
  <g id="Group_36" data-name="Group 36" transform="translate(-2 -6)">
    <path id="Path_34" data-name="Path 34" d="M31.062,25.193,58.9,7.307A6.536,6.536,0,0,0,55.026,6H7.1A6.536,6.536,0,0,0,3.22,7.307Z" transform="translate(1.438 0)" fill="#fff"/>
    <path id="Path_35" data-name="Path 35" d="M33.676,26.952h0l-.37.174h-.174a2.179,2.179,0,0,1-.632.174h0a2.178,2.178,0,0,1-.545,0h-.174l-.37-.174h0L2.218,8.26A6.536,6.536,0,0,0,2,9.872v30.5a6.536,6.536,0,0,0,6.536,6.536H56.464A6.536,6.536,0,0,0,63,40.372V9.872a6.535,6.535,0,0,0-.218-1.612Z" transform="translate(0 2.664)" fill="#fff"/>
  </g>
</svg>
