<svg xmlns="http://www.w3.org/2000/svg" xmlns:xlink="http://www.w3.org/1999/xlink" width="90" height="90" viewBox="0 0 90 90">
  <defs>
    <linearGradient id="linear-gradient" x1="-0.004" y1="1.137" x2="1.023" y2="0.067" gradientUnits="objectBoundingBox">
      <stop offset="0" stop-color="#fdfdff"/>
      <stop offset="1" stop-color="#87bfff"/>
    </linearGradient>
  </defs>
  <path id="Layer_2" data-name="Layer 2" d="M82.357,43.786H72.123a9.534,9.534,0,0,0,.591-3.214V11.643A9.643,9.643,0,0,0,63.071,2H30.929a9.643,9.643,0,0,0-9.643,9.643V40.571a9.534,9.534,0,0,0,.591,3.214H11.643A9.643,9.643,0,0,0,2,53.429V82.357A9.643,9.643,0,0,0,11.643,92H40.571A9.582,9.582,0,0,0,47,89.493,9.582,9.582,0,0,0,53.429,92H82.357A9.643,9.643,0,0,0,92,82.357V53.429A9.643,9.643,0,0,0,82.357,43.786ZM72.714,56.643H63.071V50.214h9.643ZM50.214,8.429v9.643H43.786V8.429Zm-22.5,32.143V11.643a3.214,3.214,0,0,1,3.214-3.214h6.429v9.643A6.429,6.429,0,0,0,43.786,24.5h6.429a6.429,6.429,0,0,0,6.429-6.429V8.429h6.429a3.214,3.214,0,0,1,3.214,3.214V40.571a3.214,3.214,0,0,1-3.214,3.214H30.929A3.214,3.214,0,0,1,27.714,40.571Zm3.214,9.643v6.429H21.286V50.214Zm9.643,35.357H11.643a3.214,3.214,0,0,1-3.214-3.214V53.429a3.214,3.214,0,0,1,3.214-3.214h3.214v6.429a6.429,6.429,0,0,0,6.429,6.429h9.643a6.429,6.429,0,0,0,6.429-6.429V50.214h3.214a3.214,3.214,0,0,1,3.214,3.214V82.357A3.214,3.214,0,0,1,40.571,85.571Zm45-3.214a3.214,3.214,0,0,1-3.214,3.214H53.429a3.214,3.214,0,0,1-3.214-3.214V53.429a3.214,3.214,0,0,1,3.214-3.214h3.214v6.429a6.429,6.429,0,0,0,6.429,6.429h9.643a6.429,6.429,0,0,0,6.429-6.429V50.214h3.214a3.214,3.214,0,0,1,3.214,3.214Z" transform="translate(-2 -2)" fill="url(#linear-gradient)"/>
</svg>
