<svg xmlns="http://www.w3.org/2000/svg" width="101" height="90.369" viewBox="0 0 101 90.369">
  <g id="Group_17" data-name="Group 17" transform="translate(-2.5 -3.5)">
    <path id="Path_9" data-name="Path 9" d="M90.1,3.5a2.658,2.658,0,1,0,.112,5.316h4.247L67.826,35.4H53a2.658,2.658,0,0,0-2.286,1.276L36.521,60.326,28.282,52.14a2.5,2.5,0,0,0-1.861-.8H5.158a2.658,2.658,0,1,0,0,5.316H25.3l9.887,9.834a2.5,2.5,0,0,0,1.861.8h.319a2.764,2.764,0,0,0,1.967-1.276l15.15-25.3H68.947a2.5,2.5,0,0,0,1.861-.8L98.184,12.537V16.79a2.658,2.658,0,0,0,5.316,0V6.158A2.658,2.658,0,0,0,100.842,3.5H90.1Z" transform="translate(0 0)" fill="#58275d"/>
    <path id="Path_10" data-name="Path 10" d="M20.158,9.5A2.658,2.658,0,0,0,17.5,12.158V65.316a2.658,2.658,0,0,0,2.658,2.658H36.105a2.658,2.658,0,0,0,2.658-2.658V12.158A2.658,2.658,0,0,0,36.105,9.5Z" transform="translate(64.737 25.895)" fill="#88c3f5"/>
    <path id="Path_11" data-name="Path 11" d="M15.158,11.5A2.658,2.658,0,0,0,12.5,14.158V56.684a2.658,2.658,0,0,0,2.658,2.658H31.105a2.658,2.658,0,0,0,2.658-2.658V14.158A2.658,2.658,0,0,0,31.105,11.5Z" transform="translate(43.158 34.527)" fill="#f53329"/>
    <path id="Path_12" data-name="Path 12" d="M5.158,14.5A2.658,2.658,0,0,0,2.5,17.158V43.737a2.658,2.658,0,0,0,2.658,2.658H21.105a2.658,2.658,0,0,0,2.658-2.658V17.158A2.658,2.658,0,0,0,21.105,14.5Z" transform="translate(0 47.474)" fill="#ffab47"/>
    <path id="Path_13" data-name="Path 13" d="M10.158,16.5A2.658,2.658,0,0,0,7.5,19.158V35.105a2.658,2.658,0,0,0,2.658,2.658H26.105a2.658,2.658,0,0,0,2.658-2.658V19.158A2.658,2.658,0,0,0,26.105,16.5Z" transform="translate(21.579 56.106)" fill="#86d172"/>
  </g>
</svg>
