<svg xmlns="http://www.w3.org/2000/svg" width="81.605" height="85.972" viewBox="0 0 81.605 85.972">
  <g id="Group_21" data-name="Group 21" transform="translate(-13.01)">
    <path id="Path_14" data-name="Path 14" d="M100.276,221.163l-39.383,25.85-39.3-25.805,2.838-1.908,3.886-2.611,65.609.284,3.543,2.336Z" transform="translate(-7.139 -180.305)" fill="#ffe236"/>
    <rect id="Rectangle_8" data-name="Rectangle 8" width="65.609" height="66.658" rx="30" transform="translate(21.174 1.259)" fill="#fbfbfb"/>
    <rect id="Rectangle_9" data-name="Rectangle 9" width="50.497" height="7.892" rx="3.946" transform="translate(28.73 8.815)" fill="#88c3f5"/>
    <path id="Path_15" data-name="Path 15" d="M100.276,234.1l-39.383,25.85-39.3-25.8,2.838-1.908,27.3,17.337,2.183,1.389,3.439,2.183a6.7,6.7,0,0,0,7.19,0l3.358-2.133,2.2-1.4,27.365-17.369Z" transform="translate(-7.139 -193.244)" fill="#ffdf1f"/>
    <path id="Path_16" data-name="Path 16" d="M61.63,249.754l32.575,21.391,33.029-21.679V245.69l-23.81,15.121-2.2,1.4-3.358,2.133a6.7,6.7,0,0,1-7.19,0l-3.439-2.183-2.183-1.389L61.63,245.9Z" transform="translate(-40.456 -204.435)" fill="#f2f2f2"/>
    <path id="Path_17" data-name="Path 17" d="M99.6,241.919v38.592a4.9,4.9,0,0,1-4.95,4.843H25.47a4.9,4.9,0,0,1-4.95-4.843V241.936c0-.71,1.419-.8,1.419-.8l28.9,18.353,2.183,1.389,3.439,2.183a6.7,6.7,0,0,0,7.19,0l3.358-2.133,2.2-1.4L98.2,241.13S99.6,241.216,99.6,241.919Z" transform="translate(-6.249 -200.641)" fill="#86d172"/>
    <path id="Path_18" data-name="Path 18" d="M440.605,241.14l-3.635,2.309v37.07a4.9,4.9,0,0,1-4.95,4.843h5.037a4.9,4.9,0,0,0,4.95-4.843V241.928C442.008,241.224,440.605,241.14,440.605,241.14Z" transform="translate(-348.652 -200.649)" fill="#86d172"/>
    <path id="Path_19" data-name="Path 19" d="M36.454,23.088H34.691V21.829a1.259,1.259,0,0,0-2.519,0v1.259H30.409a2.942,2.942,0,0,0-2.938,2.938V30.9a2.942,2.942,0,0,0,2.938,2.938h1.763v5.709H30.409a.42.42,0,0,1-.42-.42V37.445a1.259,1.259,0,0,0-2.519,0v1.679a2.942,2.942,0,0,0,2.938,2.938h1.763v1.259a1.259,1.259,0,0,0,2.519,0V42.062h1.763a2.942,2.942,0,0,0,2.938-2.938v-4.87a2.942,2.942,0,0,0-2.938-2.938H34.691V25.607h1.763a.42.42,0,0,1,.42.42v1.679a1.259,1.259,0,1,0,2.519,0V26.027a2.942,2.942,0,0,0-2.938-2.938Zm-4.282,8.228H30.409a.42.42,0,0,1-.42-.42v-4.87a.42.42,0,0,1,.42-.42h1.763Zm4.282,2.519a.42.42,0,0,1,.42.42v4.87a.42.42,0,0,1-.42.42H34.691V33.835Zm42.773-5.457H45.919a1.259,1.259,0,0,0,0,2.519H79.227a1.259,1.259,0,1,0,0-2.519ZM67.893,39.712a1.259,1.259,0,0,0-1.259-1.259H45.919a1.259,1.259,0,0,0,0,2.519H66.633a1.259,1.259,0,0,0,1.259-1.259Zm11.334-6.3H45.919a1.259,1.259,0,0,0,0,2.519H79.227a1.259,1.259,0,1,0,0-2.519ZM31.249,17.967H76.708a3.783,3.783,0,0,0,3.778-3.778V11.334a3.783,3.783,0,0,0-3.778-3.778H31.249a3.781,3.781,0,0,0-3.778,3.778v2.855a3.781,3.781,0,0,0,3.778,3.778Zm-1.259-6.633a1.259,1.259,0,0,1,1.259-1.259H76.708a1.261,1.261,0,0,1,1.259,1.259v2.855a1.261,1.261,0,0,1-1.259,1.259H31.249a1.259,1.259,0,0,1-1.259-1.259ZM94.08,40.012a1.254,1.254,0,0,0-.44-.48l-5.6-3.555V6.3a6.305,6.305,0,0,0-6.3-6.3H26.211a6.3,6.3,0,0,0-6.3,6.3v29.4L13.87,39.532a1.254,1.254,0,0,0-.544.754,1.74,1.74,0,0,0-.316,1.007V79.87a6.161,6.161,0,0,0,6.211,6.1H88.4a6.166,6.166,0,0,0,6.213-6.1V41.278A1.738,1.738,0,0,0,94.08,40.012Zm-6.045-1.051L90.02,40.22l-1.978,1.254ZM22.433,6.3a3.781,3.781,0,0,1,3.778-3.778H81.745A3.783,3.783,0,0,1,85.524,6.3V43.082l-24.1,15.3a1.263,1.263,0,0,0-.546.346l-4.151,2.636a5.467,5.467,0,0,1-5.84,0L22.433,43.292ZM19.915,38.677v3.014L17.54,40.18ZM92.1,79.87A3.643,3.643,0,0,1,88.4,83.453H19.221a3.645,3.645,0,0,1-3.694-3.583V41.889l28,17.782-18.585,14.4a1.261,1.261,0,1,0,1.541,2L45.8,61.121,49.548,63.5a8,8,0,0,0,8.54,0l3.682-2.337L80.678,76.043a1.26,1.26,0,0,0,1.558-1.98L64.017,59.72,92.1,41.891ZM79.227,23.34H45.919a1.259,1.259,0,0,0,0,2.519H79.227a1.259,1.259,0,1,0,0-2.519Z" fill="#12a3dd"/>
  </g>
</svg>
