<svg xmlns="http://www.w3.org/2000/svg" width="151.453" height="151.453" viewBox="0 0 151.453 151.453">
  <path id="Path_37" data-name="Path 37" d="M26.559,24.778a156.77,156.77,0,0,1,19.585-.857A24.011,24.011,0,0,1,70.089,1.75H84.865A24.01,24.01,0,0,1,108.8,23.911a158.556,158.556,0,0,1,19.593.867c6.649.887,12.249,2.807,16.7,7.248s6.354,10.048,7.255,16.7c.857,6.405.857,14.554.857,24.654v30.365c0,10.1,0,18.248-.857,24.654-.9,6.649-2.807,12.249-7.255,16.7s-10.048,6.354-16.7,7.255c-6.405.857-14.554.857-24.654.857H51.212c-10.1,0-18.248,0-24.654-.857-6.649-.9-12.249-2.807-16.7-7.255s-6.354-10.048-7.248-16.7c-.864-6.405-.864-14.554-.864-24.654V73.376c0-10.1,0-18.248.864-24.654.887-6.649,2.807-12.249,7.248-16.7s10.048-6.354,16.7-7.248Zm71.1-.864H57.293a12.929,12.929,0,0,1,12.8-11.082H84.865a12.929,12.929,0,0,1,12.8,11.082ZM28.036,141.36c-5.423-.731-8.289-2.069-10.336-4.108s-3.376-4.913-4.108-10.343c-.746-5.578-.761-12.973-.761-23.575v-24.9c27.247,11.437,43.16,17.687,59.916,18.47,3.147.148,6.309.148,9.457,0,16.756-.783,32.67-7.033,59.916-18.47v24.9c0,10.6-.015,18-.761,23.582-.731,5.423-2.069,8.289-4.108,10.336s-4.913,3.376-10.343,4.108c-5.578.746-12.973.761-23.575.761H51.619C41.017,142.121,33.614,142.106,28.036,141.36Zm114.07-74.943C111.631,79.235,96.973,85.123,81.688,85.832q-4.211.2-8.422,0c-15.293-.709-29.943-6.6-60.419-19.416A134.372,134.372,0,0,1,13.593,50.2c.731-5.423,2.069-8.289,4.108-10.336s4.913-3.376,10.343-4.108C33.614,35.011,41.017,35,51.619,35h51.716c10.6,0,18,.015,23.582.761,5.423.731,8.289,2.069,10.336,4.108s3.376,4.913,4.108,10.343a134.073,134.073,0,0,1,.746,16.209Z" transform="translate(-1.75 -1.75)" fill="#36a22d" fill-rule="evenodd"/>
</svg>
