<svg xmlns="http://www.w3.org/2000/svg" width="61" height="60.963" viewBox="0 0 61 60.963">
  <path id="Path_33" data-name="Path 33" d="M26.039,15.322C25.245,6.19,15.717,1.709,15.314,1.526a2.024,2.024,0,0,0-1.21-.162C3.105,3.189,1.451,9.59,1.384,9.856a2.058,2.058,0,0,0,.042,1.122c13.119,40.7,40.384,48.249,49.346,50.73.69.191,1.26.345,1.692.486a2.058,2.058,0,0,0,1.5-.087c.274-.125,6.751-3.176,8.335-13.127a2.072,2.072,0,0,0-.2-1.272c-.141-.274-3.529-6.722-12.924-9a2.031,2.031,0,0,0-1.837.436c-2.964,2.532-7.058,5.229-8.825,5.508-11.843-5.791-18.456-16.9-18.706-19.009-.145-1.185,2.569-5.346,5.691-8.729a2.074,2.074,0,0,0,.54-1.592Z" transform="translate(-1.326 -1.333)" fill="#fff"/>
</svg>
